<svg width="1920" height="657" viewBox="0 0 1920 657" fill="none" xmlns="http://www.w3.org/2000/svg">
<path d="M-16.3454 194.762C-262.668 226.625 -571.945 294.811 -571.945 294.811L-497.304 1045.85C-497.304 1045.85 -262.028 1136.11 -65.0319 1129.46C261.084 1118.47 487.849 958.63 814.097 942.258C1176.39 924.077 1354.73 1013.4 1717.03 995.702C1934.97 985.057 2269.21 933.436 2269.21 933.436L2169.58 1.00005C2169.58 1.00005 2068.09 42.8834 1991.71 60.3554C1818.02 100.09 1699.19 58.0944 1512.4 73.4576C1175.92 101.133 1023.97 207.256 686.56 226.798C406.393 243.024 259.313 159.105 -16.3454 194.762Z" fill="#194484" fill-opacity="0.07"/>
<path d="M318.452 146.702C114.869 159.243 -148.707 255.069 -148.707 255.069L-148.707 811.729C-148.707 811.729 35.9591 898.189 197.246 903.527C464.247 912.364 662.25 794.371 929.795 798.828C1226.9 803.778 1365.18 886.369 1662.25 891.714C1840.95 894.93 2117.88 871.073 2117.88 871.073L2117.88 48C2117.88 48 2031.67 136.621 1967.92 146.702C1822.97 169.629 1729.41 128.888 1575.74 131.221C1298.93 135.425 1166.34 213.688 889.423 211.207C659.491 209.146 546.28 132.668 318.452 146.702Z" fill="#194484"/>
</svg>
