<svg width="1920" height="635" viewBox="0 0 1920 635" fill="none" xmlns="http://www.w3.org/2000/svg">
<path d="M296.777 71.9751C96.9089 51.8805 -200.426 -26 -200.426 -26L-232.8 615.365C-232.8 615.365 287.077 512.505 631.173 512.654C890.17 512.767 1056.37 528.28 1314.09 548.874C1612.33 572.705 2054.95 624.377 2054.95 624.377L2078.16 164.389C2078.16 164.389 1588.28 69.6371 1256.71 46.4251C878.859 19.9722 672.737 109.774 296.777 71.9751Z" fill="#276ED8" fill-opacity="0.1"/>
<path d="M420 114.726C251.021 103.72 -2.3999 47 -2.3999 47V587.231C-2.3999 587.231 430.545 485.421 720 475.405C937.869 467.866 1078.33 476.011 1296 485.731C1547.88 496.979 1922.4 527.38 1922.4 527.38V139.926C1922.4 139.926 1506.29 74.6947 1226.4 64.9498C907.43 53.8442 737.857 135.427 420 114.726Z" fill="#276ED8"/>
</svg>
